<svg xmlns="http://www.w3.org/2000/svg" viewBox="0 0 512 512" width="512" height="512" role="img" aria-label="AdeelSab">
  <title>AdeelSab</title>
  <defs>
    <linearGradient id="m" x1="0" y1="0" x2="1" y2="1">
      <stop offset="0%" stop-color="#FF8B3D"/>
      <stop offset="55%" stop-color="#FB5301"/>
      <stop offset="100%" stop-color="#E63E00"/>
    </linearGradient>
  </defs>
  <rect width="512" height="512" rx="112" fill="#FFFFFF"/>
  <path d="M196 168 V138 a60 60 0 0 1 120 0 V168" fill="none" stroke="#FB5301" stroke-width="36" stroke-linecap="round"/>
  <path d="M238 158 h36 l108 224 a22 22 0 0 1 -20 32 h-26 a22 22 0 0 1 -20 -13 L256 236 L192 401 a22 22 0 0 1 -20 13 h-26 a22 22 0 0 1 -20 -32 Z" fill="url(#m)"/>
  <path d="M256 288 l28 60 h-56 Z" fill="#FFFFFF"/>
</svg>
